<svg xmlns="http://www.w3.org/2000/svg" width="64" height="64"><g transform="translate(0 -988.362)"><circle cx="1910" cy="1872.362" r="32" fill="#e6e6dc" transform="translate(-1878 -852)"/><path fill="#d0cfbf" d="M15.426 1047.688a32 32 0 0 0 1.232.756 32 32 0 0 0 2.881 1.393 32 32 0 0 0 3.004 1.096 32 32 0 0 0 3.1.79 32 32 0 0 0 3.162.479 32 32 0 0 0 3.195.16 32 32 0 0 0 2.264-.08 32 32 0 0 0 3.175-.385 32 32 0 0 0 3.122-.7 32 32 0 0 0 3.035-1.009 32 32 0 0 0 2.92-1.306 32 32 0 0 0 .73-.42v-.037a32 32 0 0 0 .43-.225 32 32 0 0 0 1.789-1.101 32 32 0 0 0 .836-.535 32 32 0 0 0 .01 0l-.01-.01a32 32 0 0 0 .537-.376 32 32 0 0 0 1.049-.751 32 32 0 0 0 2.404-2.112 32 32 0 0 0 2.18-2.34 32 32 0 0 0 1.935-2.546 32 32 0 0 0 1.672-2.727 32 32 0 0 0 1.393-2.88 32 32 0 0 0 1.095-3.005 32 32 0 0 0 .791-3.1 32 32 0 0 0 .479-3.162 32 32 0 0 0 .164-3.195 32 32 0 0 0-.08-2.263 32 32 0 0 0-.354-2.922l-14.05-14.051a2.591 2.591 0 0 0-1.84-.764H18.05c-1.455 0-2.625 1.194-2.625 2.676v44.65zm34.87-15.506v13.454l.01.01-.01-.012v-13.455z"/><path fill="#3d444d" d="M18.05 1000.362c-1.454 0-2.624 1.194-2.624 2.676v44.65A32 32 0 0 0 32 1052.362a32 32 0 0 0 18.3-5.797v-43.527c0-1.482-1.17-2.676-2.624-2.676H18.05z"/><path fill="#f9f9f9" d="M19.303 1006.16v43.563a32 32 0 0 0 12.697 2.64 32 32 0 0 0 14.426-3.44v-42.764H19.303z"/><path fill="#4f5863" d="M29.063 1002.308v1.913h7.75v-1.913h-7.75z" color="#000" font-family="Sans" font-weight="400" overflow="visible" style="text-indent:0;text-align:start;line-height:normal;text-transform:none;block-progression:tb;marker:none;-inkscape-font-specification:Sans"/><ellipse cx="1898.332" cy="1855.252" fill="#4f5863" rx=".981" ry=".969" transform="translate(-1878 -852)"/><circle cx="1910.863" cy="1875.612" r="8.719" fill="#3d444d" transform="translate(-1878 -852)"/><path fill="#f9f9f9" style="line-height:125%;-inkscape-font-specification:'Bebas Neue Bold, '" d="M28.356 1019.737h-1.815v7.652h1.892c.602 0 1.056-.157 1.363-.465.307-.308.461-.758.462-1.35v-.623c.003-.406-.066-.75-.206-1.029-.14-.28-.37-.483-.69-.61.266-.125.463-.315.589-.57.125-.255.188-.579.187-.972v-.273c.003-.59-.138-1.03-.424-1.323-.286-.292-.739-.437-1.358-.437zm-.077 4.209c.272-.01.47.06.593.198.124.137.185.381.184.73v.667c-.001.28-.054.477-.16.59-.106.114-.26.169-.463.165h-.69v-2.35zm.044-3.116c.212 0 .368.062.466.189.099.127.147.326.146.598v.426c-.002.302-.066.513-.192.634-.127.122-.303.18-.53.175h-.47v-2.022zm2.605-1.093v5.826c0 .616.152 1.09.453 1.421.302.332.748.5 1.34.503.59 0 1.037-.171 1.338-.503.302-.331.453-.805.454-1.42v-5.827h-1.137v5.903c-.002.27-.058.462-.168.576-.11.115-.262.17-.455.167-.193 0-.345-.052-.455-.167-.11-.114-.166-.306-.168-.576v-5.903zm5.535 7.652h1.203v-2.536l1.52-5.116h-1.149l-.918 3.487-.918-3.487h-1.257l1.52 5.116z" font-family="Bebas Neue Bold" font-size="10.931" font-weight="400" letter-spacing="0" word-spacing="0"/><path fill="#f9d5ac" d="M31.237 1027.201a1.536 1.536 0 0 0-.687 2.066l5.28 10.539-4.648-1.545a1.54 1.54 0 0 0-1.95.976 1.54 1.54 0 0 0 .977 1.95c3.801.714 6.137 4.74 11.205 5.04l1.58 3.153 7.34-3.677-.94-1.876c-.872-1.741.018-4.167-.664-5.622l-3.326-6.64a1.536 1.536 0 0 0-2.066-.686 1.536 1.536 0 0 0-.687 2.066l-.445-.889a1.536 1.536 0 0 0-2.066-.687c-.667.334-.974 1.101-.787 1.794l-.302-.602a1.536 1.536 0 0 0-2.066-.687 1.527 1.527 0 0 0-.801 1.764l-2.881-5.75a1.536 1.536 0 0 0-2.066-.687z"/><path fill="#5a6174" d="M51.127 1045.274a.115.115 0 0 0-.1.01l-8.941 4.48a.131.131 0 0 0-.06.177l.333.662a32 32 0 0 0 9.058-4.832l-.215-.428a.126.126 0 0 0-.076-.064z"/><path fill="#fcead4" d="M31.472 1027.673a1.12 1.12 0 0 0-.501 1.506l.632 1.262 2.007-1.006-.632-1.261a1.12 1.12 0 0 0-1.506-.5zm-1.84 12.5c-.142.43.223.881.813 1.077.357.12.895.29 1.352.445l.498-1.498-1.34-.445c-.589-.196-1.18-.01-1.322.422z"/><path fill="#f7c68f" d="M36.964 1031.844a1.526 1.526 0 0 0-.801 1.765l1.58 3.154c-.187-.693-.01-1.56.801-1.765.81-.206 1.296.928 2.092.674s.267-.78 1.143-1.218c.876-.44 1.303.833 2.091.674.788-.16.432-.826 1.158-1.19s1.553-.01 1.935.752l-1.58-3.154a1.536 1.536 0 0 0-2.066-.687 1.536 1.536 0 0 0-.687 2.066l-.445-.889a1.536 1.536 0 0 0-2.066-.687c-.667.335-.974 1.101-.787 1.794l-.302-.602a1.536 1.536 0 0 0-2.066-.687z"/></g></svg>